<svg width="14" height="8" viewBox="0 0 14 8" fill="none" xmlns="http://www.w3.org/2000/svg">
<path fill-rule="evenodd" clip-rule="evenodd" d="M13.1336 0.157961L6.6336 7.07842L6.57835 7.14895C6.45066 7.34641 6.4799 7.61188 6.65978 7.77701C6.86213 7.96277 7.1785 7.95119 7.3664 7.75113L13.8664 0.83068L13.9216 0.760149C14.0493 0.562687 14.0201 0.297213 13.8402 0.132087C13.6379 -0.053679 13.3215 -0.0420949 13.1336 0.157961ZM9.63521 0.156264L3.43573 6.69493L0.862149 4.02215L0.794346 3.96329C0.602859 3.82512 0.333042 3.83763 0.155256 4.00495C-0.0447525 4.19318 -0.0525441 4.50607 0.137853 4.70381L3.07639 7.7556L3.14702 7.81652C3.34667 7.95852 3.62866 7.93705 3.80333 7.75283L10.3648 0.832376L10.4204 0.762103C10.549 0.565236 10.521 0.299629 10.3419 0.13367C10.1405 -0.053033 9.82405 -0.0429174 9.63521 0.156264Z" fill="#8E8E93"/>
</svg>
